<svg xmlns="http://www.w3.org/2000/svg" width="370" height="232" viewBox="0 0 370 232">
    <g fill="none" fill-rule="evenodd">
        <path fill="#CBCCCE" d="M7.215 212.024c31.006-6.249 105.421-4.878 170.435-8.006 65.013-3.127 121.717-2.432 158.379.794 36.661 3.227 51.994 11.244 2.933 18.69-24.844 3.771-64.292 8.974-157.506 8.463-103.847-.57-210.45-12.642-174.24-19.94"/>
        <path fill="#FEE1E1" d="M260.781 200.832l-1.558 8.089-4.57-.907 1.727-8.968 4.401 1.786"/>
        <path fill="#000" d="M254.222 206.678l4.146 1.331 1.239 1.346-.2 3.25-11.195 1.11c-.95-1.401-.34-3.338 1.238-3.927l.52-.194 4.252-2.916"/>
        <path fill="#FEE1E1" d="M289.25 202.672l-.016 7.414 4.091.01.019-8.22-4.093.796"/>
        <path fill="#000" d="M300.685 132.017l-2.262 37.736.247 36.87-14.341.802-11.009-100.246 23.138-.853 4.227 25.69"/>
        <path fill="#000" d="M260.823 123.682l-8.19 35.903-2.045 42.874 13.858 1.53 7.75-40.7 6.995-32.814 5.858-24.367-16.457-2.793-7.769 20.367"/>
        <path fill="#CCF8E7" d="M275.46 55.29l15.833 1.977 7.755 8.373 2.736 28.643.772 24.398-37.15-3.08-9.056-3.18 5.127-25.056 6.73-23.802 7.252-8.274"/>
        <path fill="#000" d="M288.833 209.528l4.222-.158 1.553 2.049-.179 3.344-10.81 1.104-.338-.75c-.663-1.472.165-3.213 1.656-3.48l.239-.043 3.657-2.066"/>
        <path fill="#FEE1E1" d="M294.496 32.978c-1.231-2.315-3.436-4.113-5.97-4.868-8.793-2.622-12.063 5.562-12.455 12.594-.172 3.098.394 6.365 2.297 8.854a8.56 8.56 0 0 0 1.854 1.774l-.003.003c-.273.405-1.922 5.82-2.294 5.648a12.705 12.705 0 0 0 6.279 1.118c.44-1.631 1.265-3.553 1.646-5.345.284-.051.566-.114.843-.207 2.866-.95 4.577-3.78 5.89-6.464 1.706-3.487 3.904-9.364 1.913-13.107"/>
        <path fill="#000" d="M292.796 39.983c1.1 2.415.427 5.216-.382 7.728-1.075 3.339-2.42 6.699-4.841 9.251l7.74-2.962c.97-.372 1.971-.762 2.704-1.491.74-.735 1.129-1.738 1.483-2.716 1.884-5.209 3.29-11.068 1.12-16.197-1.37-3.24-4.15-5.876-7.481-7.093-2.72-.995-15.34-.821-11.988 4.753.966 1.607 4.164 2.732 5.723 3.663 2.226 1.33 4.796 2.592 5.922 5.064"/>
        <path fill="#000" d="M282.626 34.029c-.342-.077-.697-.154-1.038-.076-.406.092-.732.387-1.027.681-4.233 4.223-6.2 10.605-5.08 16.478-3.993-2.676-6.088-7.746-5.655-12.544.432-4.8 3.19-9.235 6.996-12.184 3.558-2.758 8.466-4.292 12.612-2.557 2.473 1.035 4.447 3.199 5.256 5.759 3.055 9.668-6.786 5.631-12.064 4.443"/>
        <path fill="#FEE1E1" d="M221.68 48.254c-1.137-.49-.886-1.926-.872-2.868.004-.274.022-.58.23-.765.12-.107.12-.28.285-.305.31-.047-.257-.183-.943-.416-.44-.15-.786-.3-1.287-.423-1.078-.262-2.006-.68-2.222-.808-.671-1.343 1.27-.843 2.222-.525 1.175.392 7.722 1.212 8.83 1.756.862.423 1.321.537 1.305 1.486-.003.237.105 2.406-.008 2.447-.926.33-1.852.658-2.774.995-.409.148-.811.383-1.234.485-1.62-.122-2.059-.425-3.531-1.06zM225.62 62.85c-1.139-.491-.887-1.927-.873-2.869.004-.274.021-.58.23-.764.12-.107.12-.281.284-.306.31-.047-.257-.182-.943-.415-.44-.15-.786-.301-1.287-.423-1.078-.262-2.005-.68-2.221-.808-.672-1.343 1.27-.844 2.221-.526 1.175.393 7.722 1.212 8.83 1.757.863.423 1.321.536 1.305 1.485-.003.238.106 2.407-.008 2.447-.925.33-1.851.659-2.774.995-.408.149-.81.384-1.234.485-1.62-.122-2.058-.424-3.53-1.059z"/>
        <g fill="#CCF8E7">
            <path d="M294.823 67.468l-25.578-18.165-39.918-4.435-.68 6.697 34.792 18.14 5.933 14.888 21.514 7.135 3.937-24.26"/>
            <path d="M298.885 82.004L273.307 63.84l-39.918-4.435-.68 6.697 34.793 18.139 5.932 14.89 21.514 7.134 3.937-24.26"/>
        </g>
        <g>
            <path fill="#000" d="M178.994 211l-124.154-.096c-2.675-.002-4.841-2.15-4.84-4.798L50.16 4.79c.001-2.648 2.172-4.792 4.846-4.79l124.155.096c2.674.002 4.84 2.15 4.839 4.798l-.16 201.316c-.001 2.648-2.172 4.793-4.846 4.79"/>
            <path fill="#CCF8E7" d="M176.858 191L57 190.907 57.143 11 177 11.093 176.858 191"/>
            <path fill="#FFF" d="M68 112h94V90H68z"/>
            <path fill="#00DE87" d="M82.408 105l-1.413-1.089 1.831-2.367-2.826-.817.557-1.758 2.706 1.089L83.124 97h1.752l-.14 3.036 2.727-1.067.537 1.758-2.806.796 1.831 2.388L85.592 105 84 102.445 82.408 105M94.408 105l-1.413-1.089 1.831-2.367-2.826-.817.557-1.758 2.706 1.089L95.124 97h1.752l-.14 3.036 2.727-1.067.537 1.758-2.806.796 1.831 2.388L97.592 105 96 102.445 94.408 105M107.408 105l-1.413-1.089 1.831-2.367-2.826-.817.557-1.758 2.706 1.089-.139-3.058h1.752l-.14 3.036 2.727-1.067.537 1.758-2.806.796 1.83 2.388-1.432 1.089-1.592-2.555-1.592 2.555M119.408 105l-1.413-1.089 1.83-2.367-2.825-.817.557-1.758 2.706 1.089-.139-3.058h1.752l-.14 3.036 2.727-1.067.537 1.758-2.806.796 1.83 2.388-1.432 1.089-1.592-2.555-1.592 2.555M132.408 105l-1.413-1.089 1.83-2.367-2.825-.817.557-1.758 2.706 1.089-.139-3.058h1.752l-.14 3.036 2.727-1.067.537 1.758-2.806.796 1.83 2.388-1.432 1.089-1.592-2.555-1.592 2.555M145.408 105l-1.413-1.089 1.83-2.367-2.825-.817.557-1.758 2.706 1.089-.139-3.058h1.752l-.14 3.036 2.727-1.067.537 1.758-2.806.796 1.83 2.388-1.432 1.089-1.592-2.555-1.592 2.555"/>
        </g>
    </g>
</svg>
