<svg xmlns="http://www.w3.org/2000/svg" width="204" height="260" viewBox="0 0 204 260">
    <g fill="none" fill-rule="evenodd">
        <path fill="#CBCCCE" d="M3.97 243.354c17.059-5.208 58.002-4.066 93.772-6.672s66.968-2.027 87.139.662c20.17 2.689 28.607 9.37 1.613 15.575-13.668 3.142-35.372 7.478-86.658 7.052-57.136-.475-115.789-10.535-95.866-16.617"/>
        <path fill="#FEE1E1" d="M72.194 241.803c-1.415.048-2.774-.272-4.164-.4-.717-13.854.585-28.373 1.15-42.292l10.617.57a124.99 124.99 0 0 0-5.253 22.886c-.164 1.232-2.148 19.229-2.35 19.236"/>
        <path fill="#F2C3AA" d="M117.617 241.803c1.415.048 2.774-.272 4.164-.4.717-13.854-.585-28.373-1.15-42.292l-10.616.57a124.99 124.99 0 0 1 5.252 22.886c.163 1.232 2.148 19.229 2.35 19.236"/>
        <path fill="#66EBB7" d="M65.37 207.46l21.65-.423a1718.082 1718.082 0 0 0 15.418-84.25c.344-2.188.679-4.462.052-6.585-1.185-4.014-5.46-6.305-9.554-7.074-6.362-1.195-18.05.47-21.312 7.12-3.448 7.03-2.869 19.584-3.706 27.352a474.824 474.824 0 0 0-2.549 63.86"/>
        <path fill="#FEE1E1" d="M117.617 241.803c1.415.048 2.774-.272 4.164-.4.717-13.854-.585-28.373-1.15-42.292l-10.616.57a124.99 124.99 0 0 1 5.252 22.886c.163 1.232 2.148 19.229 2.35 19.236"/>
        <path fill="#F2C3AA" d="M122.03 238.81c.874-.156 1.39.235 1.972.77.338.31.568.75.976.973.408.222.808.266 1.293.315 2.553.258 8.435.151 5.301 4.445-2.845 3.899-10.403 2.347-14.768 1.287-.287-.069-.59-.113-.801-.336-.21-.223-.352-.542-.442-.871-.498-1.835-1.18-4.126 1.064-4.895.473-.162.926-.089 1.387-.016.472.076.951.15 1.465-.028.83-.29 1.68-1.487 2.553-1.643"/>
        <path fill="#F2C3AA" d="M124.977 247.897c-2.853 0-5.933-.674-8.173-1.217-.288-.07-.59-.113-.801-.337-.21-.223-.352-.542-.442-.871-.294-1.085-.653-2.328-.433-3.323l16.607-.145c.892.61 1.12 1.63-.163 3.388-1.385 1.898-3.888 2.505-6.595 2.505"/>
        <path fill="#000" d="M122.03 238.81c.874-.156 1.39.235 1.972.77.338.31.568.75.976.973.408.222.808.266 1.293.315 2.553.258 8.435.151 5.301 4.445-2.845 3.899-10.403 2.347-14.768 1.287-.287-.069-.59-.113-.801-.336-.21-.223-.352-.542-.442-.871-.498-1.835-1.18-4.126 1.064-4.895.473-.162.926-.089 1.387-.016.472.076.951.15 1.465-.028.83-.29 1.68-1.487 2.553-1.643"/>
        <path fill="#161E2C" d="M124.977 247.897c-2.853 0-5.933-.674-8.173-1.217-.288-.07-.59-.113-.801-.337-.21-.223-.352-.542-.442-.871-.294-1.085-.653-2.328-.433-3.323l16.607-.145c.892.61 1.12 1.63-.163 3.388-1.385 1.898-3.888 2.505-6.595 2.505"/>
        <path fill="#66EBB7" d="M128.541 207.46l-21.651-.423a1718.082 1718.082 0 0 1-15.418-84.25c-.344-2.188-.679-4.462-.052-6.585 1.185-4.014 5.46-6.305 9.554-7.074 6.362-1.195 18.05.47 21.312 7.12 3.448 7.03 2.87 19.584 3.705 27.352a474.824 474.824 0 0 1 2.55 63.86"/>
        <path fill="#161E2C" d="M73.414 238.81c.874-.156 1.39.235 1.972.77.338.31.568.75.976.973.408.222.808.266 1.293.315 2.553.258 8.435.151 5.301 4.445-2.845 3.899-10.403 2.347-14.768 1.287-.287-.069-.59-.113-.801-.336-.21-.223-.352-.542-.442-.871-.498-1.835-1.18-4.126 1.064-4.895.473-.162.926-.089 1.387-.016.472.076.952.15 1.465-.028.83-.29 1.68-1.487 2.553-1.643"/>
        <path fill="#161E2C" d="M76.361 247.897c-2.853 0-5.933-.674-8.173-1.217-.287-.07-.59-.113-.801-.337-.21-.223-.352-.542-.442-.871-.294-1.085-.653-2.328-.433-3.323l16.607-.145c.892.61 1.12 1.63-.163 3.388-1.385 1.898-3.888 2.505-6.595 2.505"/>
        <path fill="#000" d="M73.414 238.81c.874-.156 1.39.235 1.972.77.338.31.568.75.976.973.408.222.808.266 1.293.315 2.553.258 8.435.151 5.301 4.445-2.845 3.899-10.403 2.347-14.768 1.287-.287-.069-.59-.113-.801-.336-.21-.223-.352-.542-.442-.871-.498-1.835-1.18-4.126 1.064-4.895.473-.162.926-.089 1.387-.016.472.076.952.15 1.465-.028.83-.29 1.68-1.487 2.553-1.643"/>
        <path fill="#000" d="M76.361 247.897c-2.853 0-5.933-.674-8.173-1.217-.287-.07-.59-.113-.801-.337-.21-.223-.352-.542-.442-.871-.294-1.085-.653-2.328-.433-3.323l16.607-.145c.892.61 1.12 1.63-.163 3.388-1.385 1.898-3.888 2.505-6.595 2.505"/>
        <path fill="#FEE1E1" d="M104.887 35.224c-1.1 2.409-2.898 4.416-4.366 6.62-1.428 2.143-1.942 4.083-2.321 6.569-.274 1.795-.914 3.198-3.073 3.505-4.072.58-2.908-2.79-3.833-5.241-1.057-2.802-3.312-5.017-4.888-7.517-4.552-7.227-3.253-21.512 6.21-24.56 10.347-3.333 15.61 13.314 12.271 20.624"/>
        <path fill="#000" d="M88.39 28.017c-1.153.047-2.42.14-3.276.923-.855.783-.762 2.491.367 2.676 1.023.167 2.348-.913 2.973-.125.366.461.045 1.135-.232 1.674-1.064 2.067-1.383 4.465-.886 6.668-.421.394-1.078-.016-1.448-.426a21.51 21.51 0 0 1-4.211-6.993 4.257 4.257 0 0 1-1.548 1.515c.383-.966.14-2.024-.095-3.01-.868-3.623-1.459-7.869 1.043-10.83 1.339-1.583 3.375-2.495 5.422-2.878 2.048-.383 4.134-.29 6.198-.196.883.04 1.97.233 2.183 1.059-1.937.785-3.94 2.315-4.91 4.169-.297.568-1.462 5.77-1.58 5.774"/>
        <path fill="#FEE1E1" d="M132.158 9.767a1.496 1.496 0 0 0-.256.338c-.565 1.158-.174 2.104-.404 3.37-.102.564-1.452 1.13-.588 1.951.318.304 1.204.936 1.89 1.576 1 .934 1.708 2.727 2.01 4.257 1.188 6.007.725 12.175.076 18.26-.037.348-.08.71-.272 1-.342.52-1.029.65-1.64.748a46.006 46.006 0 0 0-8.328 2.144c-2.412.868-4.81 1.977-6.615 3.811-1.805 1.833-2.932 4.516-2.365 7.037.424 1.888 1.805 3.53 3.582 4.257 4.406 1.804 9.306-3.168 12.672-5.485a82.605 82.605 0 0 0 9.07-7.233c.353-.324.71-.663.909-1.1.21-.466.218-.996.22-1.509.027-6.597-.522-13.16-1.206-19.746-.188-1.81-1.294-3.29-1.453-4.964-.102-1.07.58-1.981.705-3.011.125-1.02.03-2.39-.227-3.382-.506-1.957-2.428-2.728-4.043-3.57-.401-.209-.672-.351-1.096-.347-.69.007-1.217.422-1.755.816-.318.233-.62.492-.886.782"/>
        <path fill="#CCF8E7" d="M132.99 56.12c2.828-1.996 5.475-4.238 8.232-6.471.498-.404 1.012-.827 1.29-1.405.246-.513.283-1.098.313-1.666a159.83 159.83 0 0 0-.49-23.19l-7.383.571c-.076 3.658-.151 7.317-.228 10.975-.022 1.1-.062 2.257-.637 3.192-.64 1.04-1.813 1.601-2.922 2.108-3.424 1.565-6.304 1.686-9.953 1.721a66.098 66.098 0 0 0-18.532 2.84c-1.145.349-2.398.827-2.915 1.908-.286.597-.294 1.284-.296 1.947-.011 3.07-.019 6.172.64 9.17.522 2.374 1.953 6.73 4.323 7.962 2.29 1.19 6.308-.052 8.723-.584 5.08 0 10.82-3.836 15.114-6.135a45.095 45.095 0 0 0 4.72-2.943"/>
        <path fill="#CCF8E7" d="M84.01 54.23c-1.581 1.99-3.553 3.707-5.106 5.766-3.262 4.325-5.84 9.174-7.651 14.283-4.635 13.065-4.724 27.015-4.766 40.685l-.043 13.649c-.014 4.476.38 5.44 5.223 4.85 8.976-1.094 18.307-2.953 26.44-6.959 3.87-1.906 7.486-4.313 11.543-5.815 5.902-2.183 11.954-1.194 17.793-2.615-2.535-7.696-4.35-14.252-5.65-22.181-1.34-8.166-2.558-17.072-4.521-25.127-1.178-4.835-3.369-9.35-5.597-13.795-.836-1.666-1.685-3.335-2.73-4.882a17.729 17.729 0 0 0-1.817-2.296c-.484-.51-.958-1.405-1.628-1.604a48.667 48.667 0 0 0-5.605-1.304c-.333-.361-.097-1.113-.545-1.315-.12-.054-.257-.045-.388-.036l-7.97.592c-.096.49.059.988.135 1.481.076.493.048 1.063-.318 1.4-.22.203-.523.284-.81.37-.094.029-.188.059-.281.09-2.558.857-3.984 2.548-5.573 4.591l-.134.172"/>
        <path fill="#000" d="M92.498 19.504l-.21.159c-.883.686-1.712 1.52-2.782 1.824-1.542.438-3.2-.319-4.718.216-1.697.598-2.812 2.666-4.051 3.89-2.032 2.007-4.55 3.483-7.255 4.322a17.84 17.84 0 0 1-4.253.774c-.654.038-1.528.164-2.165-.011-.855-.235-.826-.63.086-.928 2.856-.933 3.752-5.021 3.536-7.732-.17-2.139-.894-4.375-.094-6.36.612-1.517 1.925-2.3 3.195-3.167 1.4-.957 2.918-.7 4.509-1.16 1.659-.48 3.01-1.81 4.702-2.15 1.787-.358 3.573.449 5.36.803a10.89 10.89 0 0 0 4.483-.057c1.317-.295 2.603-.838 3.95-.825 1.989.019 3.818 1.283 4.978 2.929 1.642 2.327 2.703 6.31 2.124 9.374.09-.475-1.48-2.198-1.804-2.569-.682-.782-1.505-1.515-2.546-1.641-2.357-.287-5.15.908-7.045 2.31"/>
        <path fill="#FEE1E1" d="M90.265 112.662c.02-.14.04-.286.02-.422-.186-1.269-1.036-1.818-1.557-2.982-.233-.52.554-1.752-.613-1.93-.43-.066-1.508-.077-2.428-.209-1.34-.192-2.925-1.252-4.028-2.328-1.484-1.447-3.02-3.012-4.264-4.653-2.61-3.445-5.14-7.572-7.055-11.46 6.226-3.478 10.212-10.68 9.88-17.85-.034-.75-.12-1.526-.503-2.17-.323-.543-.834-.949-1.371-1.279-5.679-3.492-8.716 2.085-11.35 6.475-1.644 2.74-3.14 5.627-4.366 8.584-1.717 4.14-.362 7.756 2.014 11.415 2.519 3.877 5.138 7.76 8.43 11.022 1.6 1.585 3.379 2.753 5.152 4.1 1.753 1.334 1.067 2.047 2.304 3.61.69.872 1.23 1.893 2.073 2.623 1.51 1.31 3.515.843 5.306.609.446-.059.747-.097 1.092-.343.559-.399.758-1.039.977-1.667.13-.372.232-.756.287-1.145"/>
        <path fill="#CCF8E7" d="M82.205 49.472c-7.372 4.985-13.173 12.47-16.6 20.675-1.545 3.698-4.125 6.625-4.835 10.715-.711 4.095-.076 8.432 1.573 12.228 2.863 6.586 8.285 11.684 13.938 16.085l3.808-5.785c.227-.345.462-.712.484-1.126.022-.433-.194-.838-.403-1.217l-5.432-9.845c-.372-.674-.752-1.374-.82-2.142-.186-2.138 2.033-3.796 2.35-5.893l.623.503c-.193-.157 11.808-13.043 12.497-13.835 2.627-3.02 5.326-6.171 6.458-10.02 2.415-8.217-6.325-15.291-13.641-10.343"/>
        <path fill="#FEE1E1" d="M140.839 10.714c.018-.29 0-.577-.075-.86-.72-2.694-2.96-5.59-4.538-7.849-1.22-1.746-3.865-.966-5.523-.603-.482.105-1.015.245-1.276.663-.152.242-.185.54-.177.825.042 1.64 1.386 2.72 1.925 4.17.238.641.487 1.485.067 2.11-.975 1.449-1.82-.54-2.458-1.238-2.242.874-1.059 2.528-.202 4.02a45.309 45.309 0 0 0 3.553 5.29c1.014 1.304 1.357 2.038 3.026 1.67.418-.092 4.279-.689 4.314-.895.294-1.682.586-3.365.892-5.044.135-.743.424-1.508.472-2.26"/>
    </g>
</svg>
