<?xml version="1.0" encoding="UTF-8"?>
<svg width="762px" height="140px" viewBox="0 0 762 140" version="1.1" xmlns="http://www.w3.org/2000/svg" xmlns:xlink="http://www.w3.org/1999/xlink">
    <!-- Generator: Sketch 57.1 (83088) - https://sketch.com -->
    <title>authcoreLogo</title>
    <desc>Created with Sketch.</desc>
    <g id="Page-1" stroke="none" stroke-width="1" fill="none" fill-rule="evenodd">
        <g id="authcoreLogo" fill-rule="nonzero">
            <path d="M234.775433,121.788186 L226.090655,101.180537 L182.52891,101.180537 L173.844132,121.788186 L147.92765,121.788186 L193.832907,21.9742665 L214.235243,21.9742665 L260.278354,121.788186 L234.775433,121.788186 Z M190.937981,81.4140166 L217.681584,81.4140166 L204.309783,49.8716964 L190.937981,81.4140166 Z M333.501604,50.5726369 L333.501604,121.788186 L309.101512,121.788186 L309.101512,112.255396 C304.598271,119.358295 297.935413,122.909691 289.112737,122.909691 C280.198158,122.909691 273.558275,120.386331 269.192888,115.339534 C264.827502,110.292738 262.644841,102.58247 262.644841,92.2084995 L262.644841,50.5726369 L287.596347,50.5726369 L287.596347,92.90944 C287.596347,99.9188795 290.583146,103.423547 296.556833,103.423547 C300.049142,103.423547 302.875113,102.161867 305.03483,99.6384683 C307.194548,97.1150701 308.274391,93.7505896 308.274391,89.5449258 L308.274391,50.5726369 L333.501604,50.5726369 Z M388.252468,102.44223 C389.90672,102.44223 392.112356,102.161857 394.869442,101.601102 L394.869442,120.80687 C391.469036,122.208758 387.149665,122.909691 381.911201,122.909691 C372.445205,122.909691 365.253913,120.199415 360.337109,114.778782 C355.420305,109.358149 352.96194,101.834797 352.96194,92.2084995 L352.96194,69.2176528 L339.865846,69.2176528 L339.865846,50.5726369 L352.96194,50.5726369 L352.96194,34.4510065 L377.913446,26.3200973 L377.913446,50.5726369 L394.731588,50.5726369 L394.731588,69.2176528 L377.913446,69.2176528 L377.913446,92.2084995 C377.913446,95.5730305 378.901387,98.1197553 380.877299,99.8487504 C382.853211,101.577746 385.311576,102.44223 388.252468,102.44223 Z M449.620306,48.6100036 C457.891565,48.6100036 464.071941,51.1567284 468.161619,56.2502545 C472.251297,61.3437806 474.296105,69.030684 474.296105,79.3111953 L474.296105,121.788186 L449.344599,121.788186 L449.344599,80.4327 C449.344599,76.0401179 448.609387,72.8859174 447.138941,70.9700039 C445.668495,69.0540905 443.370958,68.0961481 440.24626,68.0961481 C436.478242,68.0961481 433.445493,69.3811927 431.147921,71.9513206 C428.850349,74.5214484 427.70158,77.9092934 427.70158,82.1149571 L427.70158,121.788186 L402.750074,121.788186 L402.750074,18.6097524 L427.70158,18.6097524 L427.70158,59.2642984 C433.12385,52.1613997 440.430019,48.6100036 449.620306,48.6100036 Z M522.016435,122.909691 C510.160964,122.909691 500.878912,119.638668 494.170003,113.096525 C487.461093,106.554381 484.106688,97.6291622 484.106688,86.3205998 C484.106688,78.8438643 485.73794,72.2550899 489.000492,66.5540791 C492.263044,60.8530683 496.835143,56.4371876 502.716927,53.3063046 C508.598711,50.1754216 515.399422,48.6100036 523.119264,48.6100036 C528.265825,48.6100036 533.320407,49.3810304 538.283162,50.9231071 C543.245917,52.4651838 547.197682,54.5446197 550.138574,57.1614771 L543.797307,74.6849883 C541.31593,72.6288861 538.421032,70.9933747 535.112529,69.7784052 C531.804025,68.5634357 528.633424,67.95596 525.600629,67.95596 C520.454068,67.95596 516.502303,69.4512847 513.745217,72.4419789 C510.988131,75.4326731 509.609608,79.8719182 509.609608,85.7598474 C509.609608,91.7412358 510.988131,96.2505743 513.745217,99.2879981 C516.502303,102.325422 520.500019,103.844111 525.738482,103.844111 C528.771277,103.844111 531.918904,103.236635 535.181456,102.021666 C538.444008,100.806696 541.31593,99.1711849 543.797307,97.1150827 L550.138574,114.358218 C547.105779,117.068534 543.085088,119.171335 538.076382,120.666682 C533.067675,122.162029 527.714413,122.909691 522.016435,122.909691 Z M592.069051,122.909691 C584.257307,122.909691 577.456596,121.414367 571.666715,118.423672 C565.876834,115.432978 561.419611,111.13392 558.294913,105.526368 C555.170216,99.9188164 553.60789,93.3300421 553.60789,85.7598474 C553.60789,78.1896527 555.170216,71.6008784 558.294913,65.9933267 C561.419611,60.3857751 565.876834,56.0867167 571.666715,53.0960225 C577.456596,50.1053283 584.257307,48.6100036 592.069051,48.6100036 C599.788893,48.6100036 606.520677,50.1286927 612.264607,53.1661165 C618.008537,56.2035403 622.442784,60.5025988 625.567482,66.0634208 C628.69218,71.6242428 630.254505,78.1896527 630.254505,85.7598474 C630.254505,93.3300421 628.69218,99.895452 625.567482,105.456274 C622.442784,111.017096 618.008537,115.316154 612.264607,118.353578 C606.520677,121.391002 599.788893,122.909691 592.069051,122.909691 Z M592.069051,103.984299 C601.075533,103.984299 605.578706,97.9095426 605.578706,85.7598474 C605.578706,79.5915406 604.452913,75.0354733 602.201293,72.0915087 C599.949672,69.147544 596.572292,67.6755838 592.069051,67.6755838 C587.473907,67.6755838 584.027601,69.147544 581.730029,72.0915087 C579.432458,75.0354733 578.283689,79.5915406 578.283689,85.7598474 C578.283689,92.0216134 579.432458,96.6244096 581.730029,99.5683743 C584.027601,102.512339 587.473907,103.984299 592.069051,103.984299 Z M684.729662,48.8903798 C688.130068,48.8903798 690.749261,49.4043976 692.587319,50.4324488 L692.587319,73.5634836 C688.635495,71.6942997 684.821583,70.7597218 681.145468,70.7597218 C670.66854,70.7597218 665.430155,75.8531715 665.430155,86.0402236 L665.430155,121.788186 L640.478649,121.788186 L640.478649,71.040098 C640.478649,63.3764441 640.111043,56.5540253 639.37582,50.5726369 L662.810936,50.5726369 L664.327326,62.4886245 C665.981577,58.0960424 668.646721,54.7315619 672.322836,52.395082 C675.998951,50.0586022 680.134518,48.8903798 684.729662,48.8903798 Z M761.537106,88.7037973 L717.5618,88.7037973 C718.021315,94.2178897 719.58364,98.1898459 722.248823,100.619785 C724.914007,103.049724 728.81982,104.264675 733.966381,104.264675 C737.458691,104.264675 740.950948,103.680564 744.443257,102.512324 C747.935566,101.344084 751.106168,99.7319373 753.955157,97.675835 L760.296424,114.498406 C756.804114,117.115263 752.576645,119.171335 747.61389,120.666682 C742.651135,122.162029 737.688454,122.909691 732.725699,122.909691 C724.730149,122.909691 717.791586,121.414367 711.909802,118.423672 C706.028018,115.432978 701.524844,111.157284 698.400147,105.596462 C695.275449,100.03564 693.713123,93.4702302 693.713123,85.9000355 C693.713123,78.7036776 695.206523,72.2784544 698.193366,66.6241732 C701.18021,60.9698919 705.315777,56.5540113 710.600192,53.3763987 C715.884608,50.1987861 721.927131,48.6100036 728.727944,48.6100036 C735.344951,48.6100036 741.134745,50.1053283 746.0975,53.0960225 C751.060256,56.0867167 754.874168,60.3624107 757.539351,65.9232327 C760.204535,71.4840547 761.537106,77.9560068 761.537106,85.3392831 L761.537106,88.7037973 Z M729.417212,65.9933267 C723.259719,65.9933267 719.399856,69.6381806 717.837507,76.9279978 L740.169795,76.9279978 C739.250766,69.6381806 735.666607,65.9933267 729.417212,65.9933267 Z" id="Authcore-Copy-4" fill="#3051E3"></path>
            <g id="Group-3" transform="translate(0.486068, 0.888889)">
                <path d="M33.9496939,1.00287223 C33.3180829,0.844557385 32.4871072,0.624716211 31.4567666,0.343348705 C31.2237081,0.279704611 30.8960503,0.189411731 30.4737934,0.0724700657 C29.8985145,-0.0868501631 29.2837302,0.0193647765 28.7918445,0.363049895 C28.4819072,0.579611573 28.238593,0.75042356 28.0619018,0.875485856 C27.0928294,1.56139684 26.3290684,2.12078754 25.7706188,2.55365796 C10.1117252,14.6913191 0,33.8993844 0,55.5183141 C0,72.0742468 5.93012962,87.2163023 15.7403776,98.8518122 C26.7877144,113.913441 40.892515,126.503005 57.1151162,135.661287 C58.1044592,136.219809 59.392308,136.907938 60.9786626,137.725674 C62.2768281,138.394853 63.6921239,138.729045 65.1073655,138.729045 C66.522607,138.729045 67.9379029,138.394853 69.2360683,137.725674 C70.8224229,136.907938 72.1102717,136.219809 73.0996147,135.661287 C89.3222159,126.503005 103.427017,113.913441 114.474353,98.8518122 C124.284601,87.2163023 130.214731,72.0742468 130.214731,55.5183141 C130.214731,33.8993844 120.103006,14.6913191 104.444112,2.55365796 C103.885663,2.12078754 103.121902,1.56139684 102.152829,0.875485856 C101.976138,0.75042356 101.732824,0.579611573 101.422886,0.363049895 C100.931001,0.0193647765 100.316216,-0.0868501631 99.7409375,0.0724700657 C99.3186806,0.189411731 98.9910228,0.279704611 98.7579643,0.343348705 C97.7276238,0.624716211 96.896648,0.844557385 96.265037,1.00287223 C86.2819787,3.50515028 75.8464913,4.83223278 65.1073655,4.83223278 C54.3682396,4.83223278 43.9327522,3.50515028 33.9496939,1.00287223 Z" id="Shape-Copy-5" fill="#3051E3"></path>
                <g id="Group-Copy" transform="translate(2.026688, 16.201932)">
                    <path d="M90.354639,0 C110.234094,0 126.349577,16.2909676 126.349577,36.3868946 C126.349577,56.4828216 110.234094,72.7737892 90.354639,72.7737892 C79.5035731,72.7737892 69.7739633,67.9199796 63.1745502,60.2429745 C56.5756132,67.9199796 46.8460035,72.7737892 35.9949375,72.7737892 C16.1154824,72.7737892 -1.42108547e-13,56.4828216 -1.42108547e-13,36.3868946 C-1.42108547e-13,16.2909676 16.1154824,0 35.9949375,0 C46.8460035,0 56.5756132,4.85380961 63.1750263,12.5308147 C69.7739633,4.85380961 79.5035731,0 90.354639,0 Z" id="Combined-Shape" fill="#3051E3"></path>
                    <path d="M90.354639,4.45553811 C107.799875,4.45553811 121.942033,18.7516934 121.942033,36.3868946 C121.942033,54.0220958 107.799875,68.3182511 90.354639,68.3182511 C78.7907051,68.3182511 68.6781352,62.0365574 63.1739589,52.6645774 C57.6714413,62.0365574 47.5588714,68.3182511 35.9949375,68.3182511 C18.5497014,68.3182511 4.40754337,54.0220958 4.40754337,36.3868946 C4.40754337,18.7516934 18.5497014,4.45553811 35.9949375,4.45553811 C47.5588714,4.45553811 57.6714413,10.7372318 63.1756176,20.1092118 C68.6781352,10.7372318 78.7907051,4.45553811 90.354639,4.45553811 Z M91.0892296,18.5647421 C81.3523537,18.5647421 73.4590561,26.5439916 73.4590561,36.3868946 C73.4590561,46.2297976 81.3523537,54.209047 91.0892296,54.209047 C100.826106,54.209047 108.719403,46.2297976 108.719403,36.3868946 C108.719403,26.5439916 100.826106,18.5647421 91.0892296,18.5647421 Z M35.2603469,18.5647421 C25.523471,18.5647421 17.6301735,26.5439916 17.6301735,36.3868946 C17.6301735,46.2297976 25.523471,54.209047 35.2603469,54.209047 C44.9972229,54.209047 52.8905204,46.2297976 52.8905204,36.3868946 C52.8905204,26.5439916 44.9972229,18.5647421 35.2603469,18.5647421 Z M91.0892296,23.0202802 C98.3918866,23.0202802 104.31186,29.0047173 104.31186,36.3868946 C104.31186,43.7690718 98.3918866,49.7535089 91.0892296,49.7535089 C83.7865726,49.7535089 77.8665995,43.7690718 77.8665995,36.3868946 C77.8665995,29.0047173 83.7865726,23.0202802 91.0892296,23.0202802 Z M35.2603469,23.0202802 C42.5630039,23.0202802 48.482977,29.0047173 48.482977,36.3868946 C48.482977,43.7690718 42.5630039,49.7535089 35.2603469,49.7535089 C27.95769,49.7535089 22.0377168,43.7690718 22.0377168,36.3868946 C22.0377168,29.0047173 27.95769,23.0202802 35.2603469,23.0202802 Z M91.0892296,27.4758184 C86.2207916,27.4758184 82.2741429,31.4654431 82.2741429,36.3868946 C82.2741429,41.3083461 86.2207916,45.2979708 91.0892296,45.2979708 C95.9576676,45.2979708 99.9043163,41.3083461 99.9043163,36.3868946 C99.9043163,31.4654431 95.9576676,27.4758184 91.0892296,27.4758184 Z M35.2603469,27.4758184 C30.391909,27.4758184 26.4452602,31.4654431 26.4452602,36.3868946 C26.4452602,41.3083461 30.391909,45.2979708 35.2603469,45.2979708 C40.1287849,45.2979708 44.0754337,41.3083461 44.0754337,36.3868946 C44.0754337,31.4654431 40.1287849,27.4758184 35.2603469,27.4758184 Z" id="Combined-Shape" fill="#FFFFFF"></path>
                    <g id="Group-2" transform="translate(53.864819, 42.707035)">
                        <path d="M8.95502973,0.458641885 C14.2161537,2.70615309 17.9081267,7.97129847 17.9081267,14.1081402 C17.9081267,20.2449819 14.2161537,25.5101273 8.95502973,27.7576385 C3.6924412,25.5107951 0,20.2453711 0,14.1081402 C0,8.05263011 3.5947619,2.84586426 8.74475148,0.549585841 L8.95502973,0.458641885 Z" id="Combined-Shape" fill="#FFFFFF"></path>
                        <path d="M8.95477637,5.3299878 C12.0970534,6.97128414 14.2451007,10.2861289 14.2451007,14.1081402 C14.2451007,17.9301515 12.0970534,21.2449963 8.95477637,22.8862926 C5.81152701,21.2456964 3.66302591,17.9305551 3.66302591,14.1081402 C3.66302591,10.3184196 5.77493053,7.02733208 8.87392015,5.37194555 L8.95477637,5.3299878 Z" id="Combined-Shape" fill="#3051E3"></path>
                    </g>
                </g>
            </g>
        </g>
    </g>
</svg>