<svg xmlns="http://www.w3.org/2000/svg" width="77.084" height="83.702" viewBox="0 0 77.084 83.702">
  <path id="Subtraction_18" data-name="Subtraction 18" d="M8460.344,841h-69.288a4.918,4.918,0,0,1-3.963-1.983,5.044,5.044,0,0,1-.9-4.506l3.782-13.153a1.99,1.99,0,0,1,.452-.72,22.288,22.288,0,0,1,5.844-9.213,22.022,22.022,0,0,1,9.563-5.294l1.082-.181a4.315,4.315,0,0,1,1.147-.155,4.577,4.577,0,0,1,3.448,1.6c3.952,4.492,9.032,4.864,14.326,4.864s10.372-.372,14.327-4.864a4.558,4.558,0,0,1,3.445-1.6,4.355,4.355,0,0,1,1.148.155l1.082.273c.6.158,1.205.344,1.794.554a19.218,19.218,0,0,0-1.541,3.3c-.379-.125-.768-.239-1.156-.339l-1.08-.27a.453.453,0,0,0-.157-.026,1.32,1.32,0,0,0-.835.385c-4.935,5.654-11.117,6.127-17.027,6.127s-12.095-.473-17.029-6.127a1.186,1.186,0,0,0-.85-.383.963.963,0,0,0-.231.023l-1.08.27a18.52,18.52,0,0,0-13.065,12.7l-1.621,5.588a1.444,1.444,0,0,1-.362.628l-1.98,6.849a1.771,1.771,0,0,0,.269,1.352,1.594,1.594,0,0,0,1.171.539h67.513a41.549,41.549,0,0,0,4.421,2.711l.1.051A4.909,4.909,0,0,1,8460.344,841Zm-35.229-34.959c-10.848,0-20.362-13.262-20.362-28.38a20.321,20.321,0,0,1,37.392-11.081l.148-.053.064-.021.583,2.1,1.6,3.98.62,9.29a32.968,32.968,0,0,1-6.846,17.142C8434.592,803.547,8429.905,806.042,8425.114,806.042Zm-16.667-30a8.631,8.631,0,0,0-.092,1.531c0,13.248,7.831,24.869,16.759,24.869,4.121,0,8.136-2.464,11.307-6.939a31.291,31.291,0,0,0,5.362-16.4,36.375,36.375,0,0,1-6.847.63,26.349,26.349,0,0,1-9.665-1.655,14.357,14.357,0,0,1-6.553-4.832,12,12,0,0,1-8.021,3.065A9.537,9.537,0,0,1,8408.447,776.038Zm10.634-7.5a1.744,1.744,0,0,1,1.077.381,1.535,1.535,0,0,1,.633.9.537.537,0,0,1,.088.133.467.467,0,0,0,.091.138c1.873,3.809,7.081,6.082,13.933,6.082a35.052,35.052,0,0,0,6.7-.675,18.719,18.719,0,0,0-1.623-5.407l-.006-.005a1.2,1.2,0,0,1-.263-.355.425.425,0,0,1-.083-.163l-.006-.016,0-.011a.406.406,0,0,0-.088-.17,16.542,16.542,0,0,0-24.383-5.148,17.076,17.076,0,0,0-5.98,8.391,8.286,8.286,0,0,0,1.616.16,8.531,8.531,0,0,0,6.852-3.493A1.84,1.84,0,0,1,8419.081,768.542Z" transform="translate(-8386.002 -757.299)" fill="#999"/>
</svg>
