<?xml version="1.0" encoding="UTF-8"?>
<svg width="22px" height="22px" viewBox="0 0 22 22" version="1.1" xmlns="http://www.w3.org/2000/svg" xmlns:xlink="http://www.w3.org/1999/xlink">
    <!-- Generator: Sketch 52.5 (67469) - http://www.bohemiancoding.com/sketch -->
    <title>HidePW Copy</title>
    <desc>Created with Sketch.</desc>
    <g id="HidePW-Copy" stroke="none" stroke-width="1" fill="none" fill-rule="evenodd">
        <g id="HidePW" transform="translate(0.000000, 4.000000)">
            <g id="Group-7">
                <g id="Group-21">
                    <g id="Group-20">
                        <g id="Group-3">
                            <path d="M10.9999993,14 C13.8932606,14 16.7694678,12.7543682 19.6286208,10.2631047 L19.6286259,10.2631106 C21.294202,8.81184544 21.4679354,6.28514641 20.0166703,4.61957031 C19.9602128,4.55477565 19.9016818,4.4918173 19.8411684,4.43079332 C16.912022,1.47693111 13.9649656,0 10.9999993,0 C8.0350332,0 5.08797701,1.47693095 2.15883074,4.43079284 L2.15882998,4.43079208 C0.603308786,5.99943849 0.613948874,8.53207673 2.18259528,10.0875979 C2.24361879,10.1481108 2.30657664,10.2066414 2.37137078,10.2630985 C5.23052614,12.7543662 8.10673565,14 10.9999993,14 Z" id="Oval-2" stroke="#000000" stroke-width="2"></path>
                            <circle id="Oval-3" fill="#000000" cx="11" cy="7" r="5"></circle>
                        </g>
                    </g>
                </g>
            </g>
        </g>
    </g>
</svg>