<?xml version="1.0" encoding="UTF-8"?>
<svg width="140px" height="140px" viewBox="0 0 140 140" version="1.1" xmlns="http://www.w3.org/2000/svg" xmlns:xlink="http://www.w3.org/1999/xlink">
    <!-- Generator: Sketch 58 (84663) - https://sketch.com -->
    <title>AuthcoreIcon</title>
    <desc>Created with Sketch.</desc>
    <g id="AuthcoreIcon" stroke="none" stroke-width="1" fill="none" fill-rule="evenodd">
        <g id="Group-3" transform="translate(5.000000, 1.000000)" fill-rule="nonzero">
            <path d="M33.9496939,1.00287223 C33.3180829,0.844557385 32.4871072,0.624716211 31.4567666,0.343348705 C31.2237081,0.279704611 30.8960503,0.189411731 30.4737934,0.0724700657 C29.8985145,-0.0868501631 29.2837302,0.0193647765 28.7918445,0.363049895 C28.4819072,0.579611573 28.238593,0.75042356 28.0619018,0.875485856 C27.0928294,1.56139684 26.3290684,2.12078754 25.7706188,2.55365796 C10.1117252,14.6913191 0,33.8993844 0,55.5183141 C0,72.0742468 5.93012962,87.2163023 15.7403776,98.8518122 C26.7877144,113.913441 40.892515,126.503005 57.1151162,135.661287 C58.1044592,136.219809 59.392308,136.907938 60.9786626,137.725674 C62.2768281,138.394853 63.6921239,138.729045 65.1073655,138.729045 C66.522607,138.729045 67.9379029,138.394853 69.2360683,137.725674 C70.8224229,136.907938 72.1102717,136.219809 73.0996147,135.661287 C89.3222159,126.503005 103.427017,113.913441 114.474353,98.8518122 C124.284601,87.2163023 130.214731,72.0742468 130.214731,55.5183141 C130.214731,33.8993844 120.103006,14.6913191 104.444112,2.55365796 C103.885663,2.12078754 103.121902,1.56139684 102.152829,0.875485856 C101.976138,0.75042356 101.732824,0.579611573 101.422886,0.363049895 C100.931001,0.0193647765 100.316216,-0.0868501631 99.7409375,0.0724700657 C99.3186806,0.189411731 98.9910228,0.279704611 98.7579643,0.343348705 C97.7276238,0.624716211 96.896648,0.844557385 96.265037,1.00287223 C86.2819787,3.50515028 75.8464913,4.83223278 65.1073655,4.83223278 C54.3682396,4.83223278 43.9327522,3.50515028 33.9496939,1.00287223 Z" id="Shape-Copy-5" fill="#000000"></path>
            <g id="Group-Copy" transform="translate(2.026688, 16.201932)">
                <path d="M90.354639,0 C110.234094,0 126.349577,16.2909676 126.349577,36.3868946 C126.349577,56.4828216 110.234094,72.7737892 90.354639,72.7737892 C79.5035731,72.7737892 69.7739633,67.9199796 63.1745502,60.2429745 C56.5756132,67.9199796 46.8460035,72.7737892 35.9949375,72.7737892 C16.1154824,72.7737892 -1.42108547e-13,56.4828216 -1.42108547e-13,36.3868946 C-1.42108547e-13,16.2909676 16.1154824,0 35.9949375,0 C46.8460035,0 56.5756132,4.85380961 63.1750263,12.5308147 C69.7739633,4.85380961 79.5035731,0 90.354639,0 Z" id="Combined-Shape" fill="#000000"></path>
                <path d="M90.354639,4.45553811 C107.799875,4.45553811 121.942033,18.7516934 121.942033,36.3868946 C121.942033,54.0220958 107.799875,68.3182511 90.354639,68.3182511 C78.7907051,68.3182511 68.6781352,62.0365574 63.1739589,52.6645774 C57.6714413,62.0365574 47.5588714,68.3182511 35.9949375,68.3182511 C18.5497014,68.3182511 4.40754337,54.0220958 4.40754337,36.3868946 C4.40754337,18.7516934 18.5497014,4.45553811 35.9949375,4.45553811 C47.5588714,4.45553811 57.6714413,10.7372318 63.1756176,20.1092118 C68.6781352,10.7372318 78.7907051,4.45553811 90.354639,4.45553811 Z M91.0892296,18.5647421 C81.3523537,18.5647421 73.4590561,26.5439916 73.4590561,36.3868946 C73.4590561,46.2297976 81.3523537,54.209047 91.0892296,54.209047 C100.826106,54.209047 108.719403,46.2297976 108.719403,36.3868946 C108.719403,26.5439916 100.826106,18.5647421 91.0892296,18.5647421 Z M35.2603469,18.5647421 C25.523471,18.5647421 17.6301735,26.5439916 17.6301735,36.3868946 C17.6301735,46.2297976 25.523471,54.209047 35.2603469,54.209047 C44.9972229,54.209047 52.8905204,46.2297976 52.8905204,36.3868946 C52.8905204,26.5439916 44.9972229,18.5647421 35.2603469,18.5647421 Z M91.0892296,23.0202802 C98.3918866,23.0202802 104.31186,29.0047173 104.31186,36.3868946 C104.31186,43.7690718 98.3918866,49.7535089 91.0892296,49.7535089 C83.7865726,49.7535089 77.8665995,43.7690718 77.8665995,36.3868946 C77.8665995,29.0047173 83.7865726,23.0202802 91.0892296,23.0202802 Z M35.2603469,23.0202802 C42.5630039,23.0202802 48.482977,29.0047173 48.482977,36.3868946 C48.482977,43.7690718 42.5630039,49.7535089 35.2603469,49.7535089 C27.95769,49.7535089 22.0377168,43.7690718 22.0377168,36.3868946 C22.0377168,29.0047173 27.95769,23.0202802 35.2603469,23.0202802 Z M91.0892296,27.4758184 C86.2207916,27.4758184 82.2741429,31.4654431 82.2741429,36.3868946 C82.2741429,41.3083461 86.2207916,45.2979708 91.0892296,45.2979708 C95.9576676,45.2979708 99.9043163,41.3083461 99.9043163,36.3868946 C99.9043163,31.4654431 95.9576676,27.4758184 91.0892296,27.4758184 Z M35.2603469,27.4758184 C30.391909,27.4758184 26.4452602,31.4654431 26.4452602,36.3868946 C26.4452602,41.3083461 30.391909,45.2979708 35.2603469,45.2979708 C40.1287849,45.2979708 44.0754337,41.3083461 44.0754337,36.3868946 C44.0754337,31.4654431 40.1287849,27.4758184 35.2603469,27.4758184 Z" id="Combined-Shape" fill="#FFFFFF"></path>
                <g id="Group-2" transform="translate(53.864819, 42.707035)">
                    <path d="M8.95502973,0.458641885 C14.2161537,2.70615309 17.9081267,7.97129847 17.9081267,14.1081402 C17.9081267,20.2449819 14.2161537,25.5101273 8.95502973,27.7576385 C3.6924412,25.5107951 0,20.2453711 0,14.1081402 C0,8.05263011 3.5947619,2.84586426 8.74475148,0.549585841 L8.95502973,0.458641885 Z" id="Combined-Shape" fill="#FFFFFF"></path>
                    <path d="M8.95477637,5.3299878 C12.0970534,6.97128414 14.2451007,10.2861289 14.2451007,14.1081402 C14.2451007,17.9301515 12.0970534,21.2449963 8.95477637,22.8862926 C5.81152701,21.2456964 3.66302591,17.9305551 3.66302591,14.1081402 C3.66302591,10.3184196 5.77493053,7.02733208 8.87392015,5.37194555 L8.95477637,5.3299878 Z" id="Combined-Shape" fill="#000000"></path>
                </g>
            </g>
        </g>
    </g>
</svg>